<mxfile host="app.diagrams.net" agent="Mozilla/5.0 (Windows NT 10.0; Win64; x64) AppleWebKit/537.36 (KHTML, like Gecko) Chrome/137.0.0.0 Safari/537.36" version="27.1.6">
  <diagram name="Page-1" id="lhbv30kKUbfIRXK5clZV">
    <mxGraphModel dx="959" dy="535" grid="1" gridSize="10" guides="1" tooltips="1" connect="1" arrows="0" fold="1" page="1" pageScale="1" pageWidth="850" pageHeight="1100" math="0" shadow="0">
      <root>
        <mxCell id="0" />
        <mxCell id="1" parent="0" />
        <mxCell id="Jd2PlpxliUS_gow9cWoo-68" value="User" style="swimlane;whiteSpace=wrap;html=1;" vertex="1" parent="1">
          <mxGeometry x="270" y="40" width="210" height="250" as="geometry">
            <mxRectangle x="20" y="40" width="50" height="40" as="alternateBounds" />
          </mxGeometry>
        </mxCell>
        <mxCell id="Jd2PlpxliUS_gow9cWoo-69" value="&lt;ul style=&quot;box-sizing: border-box; padding-left: 2rem; margin-top: 10px; margin-bottom: 1rem; color: rgb(33, 37, 41); font-family: Poppins, sans-serif; font-size: 16px; text-align: start;&quot;&gt;&lt;li style=&quot;box-sizing: border-box;&quot;&gt;&lt;span&gt;&lt;span style=&quot;box-sizing: border-box; font-weight: bolder;&quot;&gt;user_id&lt;/span&gt;: UUID&lt;/span&gt;&lt;/li&gt;&lt;li style=&quot;box-sizing: border-box;&quot;&gt;&lt;span&gt;&lt;span style=&quot;box-sizing: border-box; font-weight: bolder;&quot;&gt;first_name&lt;/span&gt;: VARCHAR&lt;/span&gt;&lt;/li&gt;&lt;li style=&quot;box-sizing: border-box;&quot;&gt;&lt;span&gt;&lt;span style=&quot;box-sizing: border-box; font-weight: bolder;&quot;&gt;last_name&lt;/span&gt;: VARCHAR&lt;/span&gt;&lt;/li&gt;&lt;li style=&quot;box-sizing: border-box;&quot;&gt;&lt;span&gt;&lt;span style=&quot;box-sizing: border-box; font-weight: bolder;&quot;&gt;email&lt;/span&gt;: VARCHAR&lt;/span&gt;&lt;/li&gt;&lt;li style=&quot;box-sizing: border-box;&quot;&gt;&lt;span&gt;&lt;span style=&quot;box-sizing: border-box; font-weight: bolder;&quot;&gt;password_hash&lt;/span&gt;: VARCHAR&lt;/span&gt;&lt;/li&gt;&lt;li style=&quot;box-sizing: border-box;&quot;&gt;&lt;span&gt;&lt;span style=&quot;box-sizing: border-box; font-weight: bolder;&quot;&gt;phone_number&lt;/span&gt;: VARCHAR&lt;/span&gt;&lt;/li&gt;&lt;li style=&quot;box-sizing: border-box;&quot;&gt;&lt;span&gt;&lt;span style=&quot;box-sizing: border-box; font-weight: bolder;&quot;&gt;created_at&lt;/span&gt;: TIMESTAMP&lt;/span&gt;&lt;/li&gt;&lt;li style=&quot;box-sizing: border-box;&quot;&gt;role: ENUM&lt;/li&gt;&lt;/ul&gt;" style="text;html=1;align=center;verticalAlign=middle;whiteSpace=wrap;rounded=0;" vertex="1" parent="Jd2PlpxliUS_gow9cWoo-68">
          <mxGeometry y="30" width="210" height="210" as="geometry" />
        </mxCell>
        <mxCell id="Jd2PlpxliUS_gow9cWoo-70" value="" style="html=1;shadow=0;dashed=0;align=center;verticalAlign=middle;shape=mxgraph.arrows2.sharpArrow2;dy1=0.67;dx1=18;dx2=18;dy3=0.15;dx3=27;notch=0;" vertex="1" parent="1">
          <mxGeometry x="480" y="120" width="100" height="60" as="geometry" />
        </mxCell>
        <mxCell id="Jd2PlpxliUS_gow9cWoo-71" value="Property" style="swimlane;whiteSpace=wrap;html=1;" vertex="1" parent="1">
          <mxGeometry x="580" y="40" width="210" height="250" as="geometry">
            <mxRectangle x="20" y="40" width="50" height="40" as="alternateBounds" />
          </mxGeometry>
        </mxCell>
        <mxCell id="Jd2PlpxliUS_gow9cWoo-72" value="&lt;ul style=&quot;box-sizing: border-box; padding-left: 2rem; margin-top: 10px; margin-bottom: 1rem; color: rgb(33, 37, 41); font-family: Poppins, sans-serif; font-size: 16px; text-align: start;&quot;&gt;&lt;li style=&quot;box-sizing: border-box;&quot;&gt;&lt;span style=&quot;box-sizing: border-box; font-weight: bolder;&quot;&gt;property_id&lt;/span&gt;: UUID&lt;/li&gt;&lt;li style=&quot;box-sizing: border-box;&quot;&gt;&lt;span style=&quot;box-sizing: border-box; font-weight: bolder;&quot;&gt;host_id&lt;/span&gt;: references&amp;nbsp;&lt;code style=&quot;box-sizing: border-box; font-family: SFMono-Regular, Menlo, Monaco, Consolas, &amp;quot;Liberation Mono&amp;quot;, &amp;quot;Courier New&amp;quot;, monospace; font-size: 0.875em; color: rgb(214, 51, 132); overflow-wrap: break-word;&quot;&gt;User(user_id)&lt;/code&gt;&lt;/li&gt;&lt;li style=&quot;box-sizing: border-box;&quot;&gt;&lt;span style=&quot;box-sizing: border-box; font-weight: bolder;&quot;&gt;name&lt;/span&gt;: VARCHAR&lt;/li&gt;&lt;li style=&quot;box-sizing: border-box;&quot;&gt;&lt;span style=&quot;box-sizing: border-box; font-weight: bolder;&quot;&gt;description&lt;/span&gt;: TEXT&lt;/li&gt;&lt;li style=&quot;box-sizing: border-box;&quot;&gt;&lt;span style=&quot;box-sizing: border-box; font-weight: bolder;&quot;&gt;location&lt;/span&gt;: VARCHAR&lt;/li&gt;&lt;li style=&quot;box-sizing: border-box;&quot;&gt;&lt;span style=&quot;box-sizing: border-box; font-weight: bolder;&quot;&gt;price&lt;em style=&quot;box-sizing: border-box;&quot;&gt;per&lt;/em&gt;night&lt;/span&gt;: DECIMAL&lt;/li&gt;&lt;li style=&quot;box-sizing: border-box;&quot;&gt;&lt;span style=&quot;box-sizing: border-box; font-weight: bolder;&quot;&gt;created_at&lt;/span&gt;: TIMESTAM&lt;/li&gt;&lt;li style=&quot;box-sizing: border-box;&quot;&gt;&lt;span style=&quot;box-sizing: border-box; font-weight: bolder;&quot;&gt;updated_at&lt;/span&gt;: TIMESTAMP&lt;/li&gt;&lt;/ul&gt;" style="text;html=1;align=center;verticalAlign=middle;whiteSpace=wrap;rounded=0;" vertex="1" parent="Jd2PlpxliUS_gow9cWoo-71">
          <mxGeometry y="30" width="210" height="210" as="geometry" />
        </mxCell>
        <mxCell id="Jd2PlpxliUS_gow9cWoo-73" value="Booking" style="swimlane;whiteSpace=wrap;html=1;" vertex="1" parent="1">
          <mxGeometry x="190" y="390" width="290" height="230" as="geometry">
            <mxRectangle x="20" y="40" width="50" height="40" as="alternateBounds" />
          </mxGeometry>
        </mxCell>
        <mxCell id="Jd2PlpxliUS_gow9cWoo-74" value="&lt;ul style=&quot;box-sizing: border-box; padding-left: 2rem; margin-top: 10px; margin-bottom: 1rem; color: rgb(33, 37, 41); font-family: Poppins, sans-serif; font-size: 16px; text-align: start;&quot;&gt;&lt;li style=&quot;box-sizing: border-box;&quot;&gt;&lt;span style=&quot;box-sizing: border-box; font-weight: bolder;&quot;&gt;booking_id&lt;/span&gt;: UUID&lt;/li&gt;&lt;li style=&quot;box-sizing: border-box;&quot;&gt;&lt;span style=&quot;box-sizing: border-box; font-weight: bolder;&quot;&gt;property_id&lt;/span&gt;: references&amp;nbsp;&lt;code style=&quot;box-sizing: border-box; font-family: SFMono-Regular, Menlo, Monaco, Consolas, &amp;quot;Liberation Mono&amp;quot;, &amp;quot;Courier New&amp;quot;, monospace; font-size: 0.875em; color: rgb(214, 51, 132); overflow-wrap: break-word;&quot;&gt;Property(property_id)&lt;/code&gt;&lt;/li&gt;&lt;li style=&quot;box-sizing: border-box;&quot;&gt;&lt;span style=&quot;box-sizing: border-box; font-weight: bolder;&quot;&gt;user_id&lt;/span&gt;: references&amp;nbsp;&lt;code style=&quot;box-sizing: border-box; font-family: SFMono-Regular, Menlo, Monaco, Consolas, &amp;quot;Liberation Mono&amp;quot;, &amp;quot;Courier New&amp;quot;, monospace; font-size: 0.875em; color: rgb(214, 51, 132); overflow-wrap: break-word;&quot;&gt;User(user_id)&lt;/code&gt;&lt;/li&gt;&lt;li style=&quot;box-sizing: border-box;&quot;&gt;&lt;span style=&quot;box-sizing: border-box; font-weight: bolder;&quot;&gt;start_date&lt;/span&gt;: DATE&lt;/li&gt;&lt;li style=&quot;box-sizing: border-box;&quot;&gt;&lt;span style=&quot;box-sizing: border-box; font-weight: bolder;&quot;&gt;end_date&lt;/span&gt;: DATE&lt;/li&gt;&lt;li style=&quot;box-sizing: border-box;&quot;&gt;&lt;span style=&quot;box-sizing: border-box; font-weight: bolder;&quot;&gt;total_price&lt;/span&gt;: DECIMAL&lt;/li&gt;&lt;li style=&quot;box-sizing: border-box;&quot;&gt;&lt;span style=&quot;box-sizing: border-box; font-weight: bolder;&quot;&gt;status&lt;/span&gt;: ENUM (&lt;code style=&quot;box-sizing: border-box; font-family: SFMono-Regular, Menlo, Monaco, Consolas, &amp;quot;Liberation Mono&amp;quot;, &amp;quot;Courier New&amp;quot;, monospace; font-size: 0.875em; color: rgb(214, 51, 132); overflow-wrap: break-word;&quot;&gt;pending&lt;/code&gt;)&lt;/li&gt;&lt;li style=&quot;box-sizing: border-box;&quot;&gt;&lt;span style=&quot;box-sizing: border-box; font-weight: bolder;&quot;&gt;created_at&lt;/span&gt;: TIMESTAMP&lt;/li&gt;&lt;/ul&gt;" style="text;html=1;align=center;verticalAlign=middle;whiteSpace=wrap;rounded=0;" vertex="1" parent="Jd2PlpxliUS_gow9cWoo-73">
          <mxGeometry x="20" y="40" width="265" height="180" as="geometry" />
        </mxCell>
        <mxCell id="Jd2PlpxliUS_gow9cWoo-75" value="" style="html=1;shadow=0;dashed=0;align=center;verticalAlign=middle;shape=mxgraph.arrows2.arrow;dy=0.6;dx=40;direction=south;notch=0;" vertex="1" parent="1">
          <mxGeometry x="330" y="290" width="70" height="100" as="geometry" />
        </mxCell>
        <mxCell id="Jd2PlpxliUS_gow9cWoo-76" value="Property" style="swimlane;whiteSpace=wrap;html=1;" vertex="1" parent="1">
          <mxGeometry x="580" y="390" width="250" height="170" as="geometry">
            <mxRectangle x="20" y="40" width="50" height="40" as="alternateBounds" />
          </mxGeometry>
        </mxCell>
        <mxCell id="Jd2PlpxliUS_gow9cWoo-77" value="&lt;ul style=&quot;box-sizing: border-box; padding-left: 2rem; margin-top: 10px; margin-bottom: 1rem; color: rgb(33, 37, 41); font-family: Poppins, sans-serif; font-size: 16px; text-align: start;&quot;&gt;&lt;li style=&quot;box-sizing: border-box;&quot;&gt;&lt;span style=&quot;box-sizing: border-box; font-weight: bolder;&quot;&gt;payment_id&lt;/span&gt;: UUID&lt;/li&gt;&lt;li style=&quot;box-sizing: border-box;&quot;&gt;&lt;span style=&quot;box-sizing: border-box; font-weight: bolder;&quot;&gt;booking_id&lt;/span&gt;: references&amp;nbsp;&lt;code style=&quot;box-sizing: border-box; font-family: SFMono-Regular, Menlo, Monaco, Consolas, &amp;quot;Liberation Mono&amp;quot;, &amp;quot;Courier New&amp;quot;, monospace; font-size: 0.875em; color: rgb(214, 51, 132); overflow-wrap: break-word;&quot;&gt;Booking(booking_id)&lt;/code&gt;&lt;/li&gt;&lt;li style=&quot;box-sizing: border-box;&quot;&gt;&lt;span style=&quot;box-sizing: border-box; font-weight: bolder;&quot;&gt;amount&lt;/span&gt;: DECIMAL&lt;/li&gt;&lt;li style=&quot;box-sizing: border-box;&quot;&gt;&lt;span style=&quot;box-sizing: border-box; font-weight: bolder;&quot;&gt;payment_date&lt;/span&gt;: TIMESTAMP&lt;/li&gt;&lt;li style=&quot;box-sizing: border-box;&quot;&gt;&lt;span style=&quot;box-sizing: border-box; font-weight: bolder;&quot;&gt;payment_method&lt;/span&gt;: ENUM (&lt;code style=&quot;box-sizing: border-box; font-family: SFMono-Regular, Menlo, Monaco, Consolas, &amp;quot;Liberation Mono&amp;quot;, &amp;quot;Courier New&amp;quot;, monospace; font-size: 0.875em; color: rgb(214, 51, 132); overflow-wrap: break-word;&quot;&gt;credit_card&lt;/code&gt;,&amp;nbsp;&lt;code style=&quot;box-sizing: border-box; font-family: SFMono-Regular, Menlo, Monaco, Consolas, &amp;quot;Liberation Mono&amp;quot;, &amp;quot;Courier New&amp;quot;, monospace; font-size: 0.875em; color: rgb(214, 51, 132); overflow-wrap: break-word;&quot;&gt;paypal&lt;/code&gt;,&amp;nbsp;&lt;code style=&quot;box-sizing: border-box; font-family: SFMono-Regular, Menlo, Monaco, Consolas, &amp;quot;Liberation Mono&amp;quot;, &amp;quot;Courier New&amp;quot;, monospace; font-size: 0.875em; color: rgb(214, 51, 132); overflow-wrap: break-word;&quot;&gt;stripe&lt;/code&gt;)&lt;/li&gt;&lt;/ul&gt;" style="text;html=1;align=center;verticalAlign=middle;whiteSpace=wrap;rounded=0;" vertex="1" parent="Jd2PlpxliUS_gow9cWoo-76">
          <mxGeometry x="15" y="30" width="210" height="140" as="geometry" />
        </mxCell>
        <mxCell id="Jd2PlpxliUS_gow9cWoo-78" value="" style="html=1;shadow=0;dashed=0;align=center;verticalAlign=middle;shape=mxgraph.arrows2.arrow;dy=0.6;dx=40;flipH=1;notch=0;" vertex="1" parent="1">
          <mxGeometry x="480" y="445" width="100" height="70" as="geometry" />
        </mxCell>
        <mxCell id="Jd2PlpxliUS_gow9cWoo-79" value="" style="html=1;shadow=0;dashed=0;align=center;verticalAlign=middle;shape=mxgraph.arrows2.arrow;dy=0.6;dx=40;direction=north;notch=0;" vertex="1" parent="1">
          <mxGeometry x="650" y="290" width="70" height="100" as="geometry" />
        </mxCell>
        <mxCell id="Jd2PlpxliUS_gow9cWoo-80" value="Review" style="swimlane;whiteSpace=wrap;html=1;" vertex="1" parent="1">
          <mxGeometry x="220" y="720" width="260" height="210" as="geometry">
            <mxRectangle x="20" y="40" width="50" height="40" as="alternateBounds" />
          </mxGeometry>
        </mxCell>
        <mxCell id="Jd2PlpxliUS_gow9cWoo-81" value="&lt;ul style=&quot;box-sizing: border-box; padding-left: 2rem; margin-top: 10px; margin-bottom: 1rem; color: rgb(33, 37, 41); font-family: Poppins, sans-serif; font-size: 16px; text-align: start;&quot;&gt;&lt;li style=&quot;box-sizing: border-box;&quot;&gt;&lt;span style=&quot;box-sizing: border-box; font-weight: bolder;&quot;&gt;review_id&lt;/span&gt;: UUID&lt;/li&gt;&lt;li style=&quot;box-sizing: border-box;&quot;&gt;&lt;span style=&quot;box-sizing: border-box; font-weight: bolder;&quot;&gt;property_id&lt;/span&gt;: references&amp;nbsp;&lt;code style=&quot;box-sizing: border-box; font-family: SFMono-Regular, Menlo, Monaco, Consolas, &amp;quot;Liberation Mono&amp;quot;, &amp;quot;Courier New&amp;quot;, monospace; font-size: 0.875em; color: rgb(214, 51, 132); overflow-wrap: break-word;&quot;&gt;Property(property_id)&lt;/code&gt;&lt;/li&gt;&lt;li style=&quot;box-sizing: border-box;&quot;&gt;&lt;span style=&quot;box-sizing: border-box; font-weight: bolder;&quot;&gt;user_id&lt;/span&gt;: references&amp;nbsp;&lt;code style=&quot;box-sizing: border-box; font-family: SFMono-Regular, Menlo, Monaco, Consolas, &amp;quot;Liberation Mono&amp;quot;, &amp;quot;Courier New&amp;quot;, monospace; font-size: 0.875em; color: rgb(214, 51, 132); overflow-wrap: break-word;&quot;&gt;User(user_id)&lt;/code&gt;&lt;/li&gt;&lt;li style=&quot;box-sizing: border-box;&quot;&gt;&lt;span style=&quot;box-sizing: border-box; font-weight: bolder;&quot;&gt;rating&lt;/span&gt;: INTEGER&lt;/li&gt;&lt;li style=&quot;box-sizing: border-box;&quot;&gt;&lt;span style=&quot;box-sizing: border-box; font-weight: bolder;&quot;&gt;comment&lt;/span&gt;: TEXT&lt;/li&gt;&lt;li style=&quot;box-sizing: border-box;&quot;&gt;&lt;span style=&quot;box-sizing: border-box; font-weight: bolder;&quot;&gt;created_at&lt;/span&gt;: TIMESTAMP&lt;/li&gt;&lt;/ul&gt;" style="text;html=1;align=center;verticalAlign=middle;whiteSpace=wrap;rounded=0;" vertex="1" parent="Jd2PlpxliUS_gow9cWoo-80">
          <mxGeometry x="20" width="210" height="210" as="geometry" />
        </mxCell>
        <mxCell id="Jd2PlpxliUS_gow9cWoo-82" value="" style="html=1;shadow=0;dashed=0;align=center;verticalAlign=middle;shape=mxgraph.arrows2.arrow;dy=0.6;dx=40;direction=south;notch=0;" vertex="1" parent="1">
          <mxGeometry x="295" y="620" width="70" height="100" as="geometry" />
        </mxCell>
        <mxCell id="Jd2PlpxliUS_gow9cWoo-83" value="Message" style="swimlane;whiteSpace=wrap;html=1;" vertex="1" parent="1">
          <mxGeometry x="580" y="720" width="220" height="180" as="geometry">
            <mxRectangle x="20" y="40" width="50" height="40" as="alternateBounds" />
          </mxGeometry>
        </mxCell>
        <mxCell id="Jd2PlpxliUS_gow9cWoo-84" value="&lt;ul style=&quot;box-sizing: border-box; padding-left: 2rem; margin-top: 10px; margin-bottom: 1rem; color: rgb(33, 37, 41); font-family: Poppins, sans-serif; font-size: 16px; text-align: start;&quot;&gt;&lt;li style=&quot;box-sizing: border-box;&quot;&gt;&lt;span style=&quot;box-sizing: border-box; font-weight: bolder;&quot;&gt;message_id&lt;/span&gt;: UUID&lt;/li&gt;&lt;li style=&quot;box-sizing: border-box;&quot;&gt;&lt;span style=&quot;box-sizing: border-box; font-weight: bolder;&quot;&gt;sender_id&lt;/span&gt;: references&amp;nbsp;&lt;code style=&quot;box-sizing: border-box; font-family: SFMono-Regular, Menlo, Monaco, Consolas, &amp;quot;Liberation Mono&amp;quot;, &amp;quot;Courier New&amp;quot;, monospace; font-size: 0.875em; color: rgb(214, 51, 132); overflow-wrap: break-word;&quot;&gt;User(user_id)&lt;/code&gt;&lt;/li&gt;&lt;li style=&quot;box-sizing: border-box;&quot;&gt;&lt;span style=&quot;box-sizing: border-box; font-weight: bolder;&quot;&gt;recipient_id&lt;/span&gt;: references&amp;nbsp;&lt;code style=&quot;box-sizing: border-box; font-family: SFMono-Regular, Menlo, Monaco, Consolas, &amp;quot;Liberation Mono&amp;quot;, &amp;quot;Courier New&amp;quot;, monospace; font-size: 0.875em; color: rgb(214, 51, 132); overflow-wrap: break-word;&quot;&gt;User(user_id)&lt;/code&gt;&lt;/li&gt;&lt;li style=&quot;box-sizing: border-box;&quot;&gt;&lt;span style=&quot;box-sizing: border-box; font-weight: bolder;&quot;&gt;message_body&lt;/span&gt;: TEXT&lt;/li&gt;&lt;li style=&quot;box-sizing: border-box;&quot;&gt;&lt;span style=&quot;box-sizing: border-box; font-weight: bolder;&quot;&gt;sent_at&lt;/span&gt;: TIMESTAMP&lt;/li&gt;&lt;/ul&gt;" style="text;html=1;align=center;verticalAlign=middle;whiteSpace=wrap;rounded=0;" vertex="1" parent="Jd2PlpxliUS_gow9cWoo-83">
          <mxGeometry x="10" y="20" width="210" height="170" as="geometry" />
        </mxCell>
        <mxCell id="Jd2PlpxliUS_gow9cWoo-85" value="" style="html=1;shadow=0;dashed=0;align=center;verticalAlign=middle;shape=mxgraph.arrows2.arrow;dy=0.6;dx=40;notch=0;" vertex="1" parent="1">
          <mxGeometry x="480" y="780" width="100" height="70" as="geometry" />
        </mxCell>
        <mxCell id="Jd2PlpxliUS_gow9cWoo-86" value="" style="html=1;shadow=0;dashed=0;align=center;verticalAlign=middle;shape=mxgraph.arrows2.arrow;dy=0.6;dx=40;direction=north;notch=0;" vertex="1" parent="1">
          <mxGeometry x="660" y="560" width="70" height="160" as="geometry" />
        </mxCell>
        <mxCell id="Jd2PlpxliUS_gow9cWoo-87" value="Message" style="swimlane;whiteSpace=wrap;html=1;" vertex="1" parent="1">
          <mxGeometry x="260" y="1020" width="220" height="180" as="geometry">
            <mxRectangle x="20" y="40" width="50" height="40" as="alternateBounds" />
          </mxGeometry>
        </mxCell>
        <mxCell id="Jd2PlpxliUS_gow9cWoo-88" value="&lt;ul style=&quot;box-sizing: border-box; padding-left: 2rem; margin-top: 10px; margin-bottom: 1rem; color: rgb(33, 37, 41); font-family: Poppins, sans-serif; font-size: 16px; text-align: start;&quot;&gt;&lt;li style=&quot;box-sizing: border-box;&quot;&gt;&lt;span style=&quot;box-sizing: border-box; font-weight: bolder;&quot;&gt;message_id&lt;/span&gt;: UUID&lt;/li&gt;&lt;li style=&quot;box-sizing: border-box;&quot;&gt;&lt;span style=&quot;box-sizing: border-box; font-weight: bolder;&quot;&gt;sender_id&lt;/span&gt;: references&amp;nbsp;&lt;code style=&quot;box-sizing: border-box; font-family: SFMono-Regular, Menlo, Monaco, Consolas, &amp;quot;Liberation Mono&amp;quot;, &amp;quot;Courier New&amp;quot;, monospace; font-size: 0.875em; color: rgb(214, 51, 132); overflow-wrap: break-word;&quot;&gt;User(user_id)&lt;/code&gt;&lt;/li&gt;&lt;li style=&quot;box-sizing: border-box;&quot;&gt;&lt;span style=&quot;box-sizing: border-box; font-weight: bolder;&quot;&gt;recipient_id&lt;/span&gt;: references&amp;nbsp;&lt;code style=&quot;box-sizing: border-box; font-family: SFMono-Regular, Menlo, Monaco, Consolas, &amp;quot;Liberation Mono&amp;quot;, &amp;quot;Courier New&amp;quot;, monospace; font-size: 0.875em; color: rgb(214, 51, 132); overflow-wrap: break-word;&quot;&gt;User(user_id)&lt;/code&gt;&lt;/li&gt;&lt;li style=&quot;box-sizing: border-box;&quot;&gt;&lt;span style=&quot;box-sizing: border-box; font-weight: bolder;&quot;&gt;message_body&lt;/span&gt;: TEXT&lt;/li&gt;&lt;li style=&quot;box-sizing: border-box;&quot;&gt;&lt;span style=&quot;box-sizing: border-box; font-weight: bolder;&quot;&gt;sent_at&lt;/span&gt;: TIMESTAMP&lt;/li&gt;&lt;/ul&gt;" style="text;html=1;align=center;verticalAlign=middle;whiteSpace=wrap;rounded=0;" vertex="1" parent="Jd2PlpxliUS_gow9cWoo-87">
          <mxGeometry x="5" y="20" width="210" height="170" as="geometry" />
        </mxCell>
        <mxCell id="Jd2PlpxliUS_gow9cWoo-89" value="" style="html=1;shadow=0;dashed=0;align=center;verticalAlign=middle;shape=mxgraph.arrows2.arrow;dy=0.6;dx=40;direction=south;notch=0;" vertex="1" parent="1">
          <mxGeometry x="315" y="930" width="70" height="90" as="geometry" />
        </mxCell>
        <mxCell id="Jd2PlpxliUS_gow9cWoo-90" value="" style="strokeWidth=2;html=1;shape=mxgraph.flowchart.annotation_1;align=left;pointerEvents=1;direction=west;" vertex="1" parent="1">
          <mxGeometry x="480" y="890" width="50" height="250" as="geometry" />
        </mxCell>
      </root>
    </mxGraphModel>
  </diagram>
</mxfile>
